<?xml version="1.0" encoding="utf-8"?>
<!-- Generator: Adobe Illustrator 28.3.0, SVG Export Plug-In . SVG Version: 6.00 Build 0)  -->
<svg version="1.1" xmlns="http://www.w3.org/2000/svg" xmlns:xlink="http://www.w3.org/1999/xlink" x="0px" y="0px"
	 viewBox="0 0 1329.7 639.6" style="enable-background:new 0 0 1329.7 639.6;" xml:space="preserve">
<style type="text/css">
	.st0{fill:#FFFFFF;}
	.st1{fill:#020202;}
	.st2{fill:#0A0A0A;}
	.st3{fill:#050505;}
</style>
<g id="Layer_2">
	<rect x="0" class="st0" width="1329.7" height="639.6"/>
</g>
<g id="Layer_1">
	<path class="st1" d="M600.8,446.5c-0.1,8.2-7,14.8-15.2,14.7c-8.2-0.1-14.8-6.9-14.7-15.2c0-1.9,0.3-664.8,749.2-371
		c7.7,3,11.5,11.7,8.5,19.4c-1.6,4.1-4.8,7.1-8.7,8.5c-73.1,27.7-117,97.1-163.4,170.5c-83.4,131.9-174.8,276.4-452.8,244.9
		c-8.2-0.9-14.1-8.3-13.2-16.5c0.9-8.2,8.3-14.1,16.5-13.2c259.4,29.4,345.5-106.8,424.2-231.1c42.2-66.8,82.6-130.5,145.4-166.9
		C600.9-155.8,600.8,444.9,600.8,446.5L600.8,446.5L600.8,446.5z"/>
	<path class="st2" d="M563,630.3c-3.1,7.6-11.9,11.3-19.5,8.2c-7.6-3.1-11.3-11.9-8.2-19.5c0.5-1.1,171.6-410.9,533.6-496.8
		c8-1.9,16.1,3.1,18,11.1c1.9,8-3.1,16.1-11.1,18C728.7,233.8,563.4,629.2,563,630.3L563,630.3L563,630.3z"/>
	<path class="st3" d="M538.4,499.9c0.2,8.2-6.4,15.1-14.6,15.2s-15.1-6.4-15.2-14.6c0-1.1-0.1-408.5-456.7-247.4
		c40.2,26.4,66.9,68.7,94.9,112.9c54.1,85.6,113.4,179.3,291.6,159.2c8.2-0.9,15.6,5,16.5,13.2c0.9,8.2-5,15.6-13.2,16.5
		C245,577.3,180.4,475.2,121.5,382c-32-50.5-62.2-98.3-111.8-117.1c-3.8-1.4-7.1-4.4-8.7-8.5c-3-7.7,0.8-16.4,8.5-19.4
		C538.3,29.5,538.4,498.6,538.4,499.9L538.4,499.9z"/>
	<path class="st2" d="M562.8,618.7c3.3,7.5-0.1,16.3-7.6,19.7c-7.6,3.3-16.3-0.1-19.7-7.6c-0.3-0.8-114.9-275-354.9-331.9
		c-8-1.9-13-10-11.1-18c1.8-8,9.9-13,18-11.1C442.4,330.1,562.4,617.8,562.8,618.7L562.8,618.7L562.8,618.7z"/>
</g>
</svg>
