<?xml version="1.0" encoding="utf-8"?>
<!-- Generator: Adobe Illustrator 28.3.0, SVG Export Plug-In . SVG Version: 6.00 Build 0)  -->
<svg version="1.1" xmlns="http://www.w3.org/2000/svg" xmlns:xlink="http://www.w3.org/1999/xlink" x="0px" y="0px"
	 viewBox="0 0 1134 2500" style="enable-background:new 0 0 1134 2500;" xml:space="preserve">
<style type="text/css">
	.st0{fill:#FFFFFF;}
</style>
<g id="Layer_2">
	<rect x="0" class="st0" width="1134" height="2500"/>
</g>
<g id="Layer_1">
	<path d="M491,1799.9c0.1-1.3,0.2-2.5,0.2-3.8V254.4c0-24.6-20-44.6-44.6-44.6s-44.6,20-44.6,44.6v1541.7c0,1.3,0.1,2.6,0.2,3.8
		c-120.9,21.1-212.9,126.5-212.9,253.5c0,142.1,115.2,257.3,257.3,257.3s257.3-115.2,257.3-257.3
		C703.9,1926.5,611.9,1821,491,1799.9L491,1799.9z"/>
	<path d="M701,1686.4v-1432C701,114.1,586.9,0,446.6,0S192.1,114.1,192.1,254.4v1432c-54.6,37.9-100.4,87.8-133.4,145.5
		C20.3,1899.1,0,1975.7,0,2053.4C0,2299.7,200.3,2500,446.6,2500s446.6-200.3,446.6-446.6c0-77.8-20.3-154.4-58.8-221.5
		C801.4,1774.2,755.6,1724.3,701,1686.4L701,1686.4z M446.6,2410.7c-197,0-357.3-160.3-357.3-357.3c0-125.3,63.9-239.2,170.8-304.8
		c13.2-8.1,21.3-22.5,21.3-38.1V254.4c0-91.1,74.1-165.2,165.2-165.2s165.2,74.1,165.2,165.2v1456.1c0,15.5,8.1,29.9,21.3,38.1
		c107,65.6,170.8,179.6,170.8,304.8C803.9,2250.4,643.6,2410.7,446.6,2410.7L446.6,2410.7z"/>
	<path d="M1089.4,1544.5H812.6c-24.7,0-44.6,20-44.6,44.6s20,44.6,44.6,44.6h276.8c24.7,0,44.6-20,44.6-44.6
		S1114,1544.5,1089.4,1544.5z"/>
	<path d="M812.6,1427.5h165.2c24.7,0,44.6-20,44.6-44.6s-20-44.6-44.6-44.6H812.6c-24.7,0-44.6,20-44.6,44.6
		S787.9,1427.5,812.6,1427.5z"/>
	<path d="M1089.4,1132H812.6c-24.7,0-44.6,20-44.6,44.6s20,44.6,44.6,44.6h276.8c24.7,0,44.6-20,44.6-44.6S1114,1132,1089.4,1132z"
		/>
	<path d="M812.6,1015.1h165.2c24.7,0,44.6-20,44.6-44.6s-20-44.6-44.6-44.6H812.6c-24.7,0-44.6,20-44.6,44.6
		S787.9,1015.1,812.6,1015.1z"/>
	<path d="M1089.4,719.6H812.6c-24.7,0-44.6,20-44.6,44.6s20,44.6,44.6,44.6h276.8c24.7,0,44.6-20,44.6-44.6S1114,719.6,1089.4,719.6
		z"/>
	<path d="M812.6,602.6h165.2c24.7,0,44.6-20,44.6-44.6s-20-44.6-44.6-44.6H812.6c-24.7,0-44.6,20-44.6,44.6S787.9,602.6,812.6,602.6
		z"/>
	<path d="M812.6,396.4h276.8c24.7,0,44.6-20,44.6-44.6s-20-44.6-44.6-44.6H812.6c-24.7,0-44.6,20-44.6,44.6S787.9,396.4,812.6,396.4
		z"/>
</g>
</svg>
