<?xml version="1.0" encoding="UTF-8"?>
<svg id="Layer_2" data-name="Layer 2" xmlns="http://www.w3.org/2000/svg" viewBox="0 0 30.04 24.54">
  <defs>
    <style>
      .cls-1 {
        fill: #231f20;
        stroke-width: 0px;
      }
    </style>
  </defs>
  <g id="Layer_7" data-name="Layer 7">
    <path class="cls-1" d="M.64,20.87s-.02.48.52.42c.54-.05.53-.26.53-.26,0,0,.19.22.89.01.7-.21,2.02-1.09,2.95-1.62.94-.53,2.52-1.76,2.94-1.85.42-.09,1.02-.33,1.62-.55.61-.22,1.83-.55,2.31-.64.49-.09,1.05-.24,1.42-.03.38.22.78.3.78.3,0,0-.35,1.2-.37,1.72-.02.53.43,1.3.89,1.31.03,0,.07,0,.1-.02.08.57.27.63.62.98.36.36,1.02,1.09,1.02,1.09,0,0-.24,0-.41.14,0,0,0,0,0,0-.06-.05-.12-.1-.2-.11-.07-.03-.15-.02-.22,0l-.1.06s-.06.05-.09.08c-.12.12-.2.27-.27.44-.06.17-.1.34-.13.52h.02c.05-.16.11-.32.19-.45.07-.14.16-.26.26-.33.1-.08.21-.07.32-.06.04,0,.07,0,.11.01,0,0,0,0,0,.01-.13.3,0,.75.23.71.24-.04.3-.1.43-.23s.36-.08.36-.08c0,0,.1.12.21.27.11.15.44.66.44.66,0,0-.82-.23-1.21-.14-.02,0-.04.01-.06.02-.01-.01-.02-.02-.03-.03-.07-.05-.13-.1-.21-.12-.04,0-.07-.02-.11-.02-.04,0-.08,0-.12.01-.07.03-.15.05-.22.11-.14.09-.25.24-.33.39-.08.16-.15.33-.19.52h.02c.07-.16.15-.31.24-.44.09-.13.2-.23.32-.29.12-.06.24-.05.36-.03.03,0,.06,0,.09.01.01,0,.02,0,.03,0-.15.21-.08.58.05.57.17-.01.73-.03.84.03.11.05.62.17.98.23.36.06.93,0,1.34.15.41.15.53,0,1.1.05.37.03.41-.14.39-.27.03,0,.07,0,.1,0,.08.02.16.06.23.13.07.07.13.16.16.28h.02c-.01-.14-.05-.26-.12-.37-.06-.09-.13-.16-.21-.21.07-.03.14-.07.2-.14.11-.12.07-.32,0-.45,0,0,0,0,0,0l.09-.04c.11-.05.22-.12.33-.12.11,0,.22.08.29.21.08.13.13.3.16.48h.02c0-.1,0-.19-.03-.28,0-.05-.02-.09-.03-.14-.01-.04-.03-.09-.04-.13-.07-.17-.2-.31-.35-.34-.15-.03-.3-.01-.42.09-.03.02-.06.05-.09.07-.02.02-.04.04-.06.06,0,0,0,0,0,0-.1,0-.19.15-.43.15s-.75-.01-.75-.01c0-.06-.02-.1-.06-.13,0,0,.01-.01.02-.02.05-.05.1-.11.16-.12.06-.02.12-.01.17.03.06.04.11.11.15.19h.02c-.02-.11-.06-.2-.12-.28-.06-.08-.15-.12-.23-.12-.09,0-.17.04-.24.09-.03.03-.07.06-.09.1-.01.02-.03.05-.04.07-.11,0-.24.02-.42.07-.4.11-.46-.04-.67-.13-.21-.09-1.08-.94-1.08-.94,0,0,.15-.15.37-.21.12-.03.39-.01.5-.01.28,0,.26-.09.55-.19.29-.1.3-.06.53-.12.23-.05.27-.06.47-.14.09-.03.13-.14.13-.26,0,0,0,0,0,0,.04,0,.08.03.12.06.08.05.15.13.21.23.06.1.11.22.14.34h.02c0-.14-.03-.28-.08-.41-.05-.13-.12-.25-.21-.33-.09-.08-.19-.17-.29-.18-.03,0-.07,0-.1,0-.03-.01-.07-.02-.12-.02-.36,0-.41.14-.79.24-.38.1-.82-.1-.94-.17-.12-.06-.38-.31-.66-.44-.28-.13-1.14-.78-1.14-.78,0,0,.3-1.35.56-1.65.26-.3,1.91-2.31,1.91-2.31,0,0,.11.06.28.06s1.03-.23,1.6-.57c.57-.33,2.34-1.58,3.15-2.69.81-1.11.5-2.31.5-2.31,0,0,.11-.14.28-.54.17-.4.36-1.2.47-2.06.11-.86.56-2.81.78-3.25.22-.44.55-1.41.55-1.41,0,0,.06,0,.22-.05.16-.04.74-.28,1.31-.45.57-.17,1.15-.5,1.4-.58.24-.08.32-.2.32-.2-.08,0-.37-.1-.37-.1.27-.07.45.06.45.06,0,0-.22-.59-.81-.91-.59-.32-1.75-.37-2.56-.21-.81.17-1.32-.01-1.32-.01,0,0-1.38-.63-1.96-.63s-1.38.53-1.77.91c-.39.39-.9,1.4-1.21,1.94-.31.54-.59.95-.9.98-.75.06-2.07.77-2.5,1.16-.43.39-2.33,1.45-3.05,1.93-.73.48-1.1.54-1.42.72-.32.18-2.37,1.38-2.57,1.54-.2.17-.17.37-.17.37,0,0-.17.13-.57.39-.4.26-.85.54-1.31,1.09-.46.55.17,1.03.17,1.03,0,0-.61.27-.84.39-.24.12-.5.3-.87.51-.37.22-1.94.75-2.44.82-.5.08-1.18.37-1.5.41-.32.04-1.53.58-1.78,1.23-.25.66,1.48.1,2.03.12.55.01,2.76.06,2.76.06,0,0-.42.31-.95.71-.52.4-1.67,1.57-2.07,1.84-.4.27-.48.62-.76.84-.28.22-.76.75-1.11.94-.35.19-.53.5-.53.78s.64.17.64.17h0Z"/>
  </g>
</svg>
