<?xml version="1.0" encoding="UTF-8"?>
<svg id="Layer_2" data-name="Layer 2" xmlns="http://www.w3.org/2000/svg" viewBox="0 0 26.06 26.22">
  <defs>
    <style>
      .cls-1 {
        fill: #100d0f;
        fill-rule: evenodd;
        stroke-width: 0px;
      }
    </style>
  </defs>
  <g id="Layer_7" data-name="Layer 7">
    <path class="cls-1" d="M21.4.03c-.36.08-.74.36-1.08.78-.26.31-.47.7-.64,1.15-.21.56-.39,1.63-.47,2.68-.06.89-.15,1.48-.25,1.64-.03.05-.12.14-.19.22-.3.29-.34.35-.36.55v.12s-.21.12-.21.12c-.32.2-.47.31-.55.4-.09.1-.27.44-.31.56-.02.07-.06.11-.23.25-.23.19-.36.26-.84.47-.87.37-1.43.73-2.38,1.49-.56.45-.78.67-1.15,1.17-.33.44-.43.53-.95.84-.73.43-.99.61-1.39.94-.34.29-.81.82-1.08,1.23-.11.17-.13.26-.05.34.06.06.09.03-.3.36-.44.38-.69.67-.82.95-.07.14-.06.19.01.26l.06.07-.13.13c-.07.07-.3.26-.5.43-.44.36-.71.63-.85.85-.16.25-.13.37.1.37h.11l-.34.38c-.36.4-.53.63-.55.76-.01.08-.03.1-.59.43-.19.12-.54.33-.77.48-.23.15-.63.39-.89.55-1.2.7-1.49.89-1.87,1.19-.22.17-.47.44-.52.56-.07.15-.06.2.05.32l.1.1-.06.06s-.1.11-.14.18c-.13.19-.14.34-.02.41.08.05.32.03.61-.04.12-.03.22-.05.22-.04,0,0-.11.11-.26.22-.78.63-1.29,1.09-1.59,1.43-.23.26-.31.42-.31.59,0,.1,0,.12.06.18.04.04.09.08.14.08.13.03.55-.1.82-.24l.08-.05.08.05c.07.04.1.05.22.04.25-.02.77-.25,1.31-.58.15-.1.25-.14.38-.17.65-.17,1.63-.56,3.46-1.39.47-.22,1.08-.49,1.35-.61.27-.12.6-.27.74-.34l.25-.12.12.02c.16.03.37.01.87-.09.26-.05.42-.08.43-.06.02.06.1.16.16.19.05.03.11.04.28.04.24,0,.41-.03.93-.16.35-.09.39-.1.45-.07.14.06.25.06.81.04.4-.02.62-.02.75,0,.18.02.19.03.26.11.18.19.57.3,1.1.3h.16v.15c.02.08.03.37.03.64,0,.55,0,.6-.13.76-.08.1-.23.19-.38.23-.23.06-.81.33-.94.43-.03.03-.08.1-.12.16-.05.09-.05.12-.03.16,0,.03.04.05.07.06.07.02.24-.03.41-.11.08-.04.22-.09.31-.11.1-.02.29-.07.43-.11.31-.08.44-.08.53-.02.15.11.87.47,1.07.54.06.02.24.04.44.05.22.01.44.04.63.08.36.07.62.08.67.02.08-.12,0-.22-.29-.37-.13-.07-.22-.13-.2-.13.02,0,.13.01.25.03.23.03.27.01.27-.08,0-.08-.13-.16-.38-.26-.13-.05-.23-.09-.21-.09.01,0,.14-.02.29-.04.32-.05.84-.1,1.07-.09.18,0,.33.04.67.17.34.13.6.18,1.12.22.59.04.6.04.62,0,.05-.09-.05-.18-.33-.29l-.13-.05h.15c.08.02.21.04.28.06.07.02.2.06.28.08.08.02.24.06.36.08.12.02.28.06.36.08.11.04.16.04.22.03.07-.02.07-.03.07-.09s-.01-.08-.11-.15c-.18-.13-.45-.29-.57-.34-.12-.05-.22-.07-.66-.12-.37-.04-.52-.07-.69-.16-.19-.1-.49-.21-.8-.32-.28-.09-.29-.1-.39-.21-.06-.06-.14-.17-.17-.23-.07-.14-.56-1.25-.56-1.26,0,0,.1,0,.22,0,.52,0,1.13-.18,1.92-.57,1.06-.53,2.14-1.55,3.11-2.94.47-.68.86-1.43,1.23-2.35.34-.86.57-1.87.75-3.2.13-1.03.15-2.17.05-3.15-.11-1.07-.36-2.02-.81-3.07-.3-.71-.46-1-.96-1.73-.28-.42-.38-.59-.43-.77-.06-.2-.06-.34.02-.51.12-.26.19-.33.4-.37.19-.03.81.09,1.08.22.2.1.25.07.25-.14,0-.32-.16-.76-.37-1.05-.14-.21-.48-.47-.66-.5q-.07-.01-.08-.15c-.03-.37-.21-.88-.39-1.17-.23-.35-.67-.67-1.15-.85-.48-.17-1.15-.25-1.49-.17h0Z"/>
  </g>
</svg>