<?xml version="1.0" encoding="UTF-8"?>
<svg id="Layer_2" data-name="Layer 2" xmlns="http://www.w3.org/2000/svg" viewBox="0 0 31.33 32.32">
  <defs>
    <style>
      .cls-1 {
        fill: #231f20;
        stroke-width: 0px;
      }
    </style>
  </defs>
  <g id="Layer_7" data-name="Layer 7">
    <path class="cls-1" d="M23.06,3.44c-.57,1.45-.93,2.88-.93,3.99.01,1.51.42,2.9.47,3.4.06.5.07,1.13-1.02,1.37-.75.16-4.16.43-5.25.78-1.08.35-4.33,1.67-5.43,2.12-1.09.45-1.84,1.03-1.78,1.23,0,0-2.98.95-3.83,1.46-.85.51-3.51,1.53-4.49,1.82-.98.28-.96.24-.58.52.38.28.86.2,1.13.45.27.25,1.85,1,2.4,1.39.29.2,1.01.59,1.68,1.16.6.52,1.16,1.22,1.48,1.47.68.52,2.83,1.42,3.37,1.53.54.11.98.32,1.46.54.47.23,1.06.3,1.06.3,0,0-.12.59-.27.9-.15.31-.35.64-.54.9-.19.26-.09.4-.16.46-.07.06-.55.23-.77.38-.09.06-.13.14-.14.23-.02.02-.03.04-.05.05-.04.04-.06.09-.08.14-.01.05-.02.1-.02.16h.01c.03-.09.09-.16.16-.21.04.07.12.12.24.12.31-.01.44-.14.44-.14,0,0-.17.48-.12.73.04.25.21.42.24.49.03.07.21.59.95.8s1.05.2,1.29.22c.05,0,.09,0,.11-.01,0,0,.01,0,.02.01.05.03.1.08.14.13h.01c-.02-.07-.06-.13-.1-.18,0-.01-.02-.02-.03-.03,0-.05-.03-.09-.03-.09,0,0,1.23-.11,1.74-.2.51-.09.71-.08.95-.06.13,0,.27-.04.33-.1.02,0,.04.01.06.02.06.03.12.07.17.11h.01c-.04-.07-.09-.13-.14-.18-.02-.02-.04-.03-.07-.05,0-.03-.02-.06-.05-.08-.17-.14-.58-.23-.58-.23,0,0,0-.02-.02-.05.03,0,.06,0,.09,0,.05,0,.11.02.16.03h0s-.1-.07-.15-.1c-.05-.02-.11-.04-.17-.06-.04-.01-.09-.03-.14-.03-.03-.01-.07-.02-.11-.03-.3-.05-.57,0-.85-.04-.28-.03-.47,0-.68-.03-.21-.04-.35.01-.5-.07-.16-.08-.67-.35-.87-.45-.2-.1-.05-.11-.02-.29.04-.17.23-.68.23-.93s.05-.42.08-.57c.02-.15.36-1.23.36-1.23,0,0,.92.21,1.49.17.57-.04,1.81-.33,2.08-.45.28-.12.25-.17.84-.13.59.04,1.03-.29,1.14-.23.11.06.39.3.45.29,0,0-.03.2.15.47.18.26.25.44.44.62.2.17.56.45.65.56.09.11.86.77,1.05,1.29.19.52.37.56.36.71,0,.15-.16.21-.2.49,0,.07,0,.14.03.2-.02.03-.03.07-.03.11,0,.04,0,.09.01.13.01.04.03.08.06.1h.01s0-.08,0-.11c0-.03.01-.06.03-.09,0,0,0,0,0-.01.08.08.2.1.27.01.15-.17.2-.36.36-.36,0,0,.2.73.69.77.49.04,1.6,0,1.92.05.32.04.83.15,1.18.15s.3,0,.83-.02c.53-.01.76-.04.87-.14,0,0,.01-.01.02-.02.03,0,.05.02.08.03.05.02.09.06.13.1h.01c-.02-.06-.06-.11-.1-.16-.05-.04-.1-.08-.16-.1-.03-.01-.06-.02-.09-.03-.05-.03-.1-.06-.14-.08.11.03.26.06.39.04.12-.01.19-.1.19-.19.06.04.11.09.15.16h.01c0-.06-.03-.11-.05-.16-.03-.05-.07-.1-.12-.13-.03-.02-.05-.03-.09-.04-.05-.04-.12-.07-.21-.09-.41-.08-.97-.16-1.21-.17-.24-.02-1.31-.14-1.48-.14s-.95-.03-1.25-.38c-.3-.35-.24-.66-.59-.87-.35-.21-.95-.69-1.23-.98-.28-.29-.5-.62-.66-.75s-.22-.08-.28-.28c-.06-.2-.12-.49-.29-.7-.17-.21-.32-.32-.32-.32,0,0,.17-.48.14-.8-.04-.32-.16-.74.17-1.21.32-.47,1.09-1.53,2.4-2.7,1.31-1.17,2.92-2.47,3.52-4.15.6-1.68.8-3.42.38-5.05-.42-1.63-1.63-2.91-1.99-3.96-.36-1.05-.42-1.92.12-2.99.54-1.07.32-1.23.73-1.45.41-.23.78-.23.99-.31.2-.08.26-.09.55-.17.29-.08.48-.22.48-.22.15-.01.89-.09,1.21-.09s.37.01.77.01.73-.16.17-.6c-.56-.44-1.57-.95-1.82-1.42-.25-.47-.63-1.56-1.96-1.59-1.33-.03-2.46-.03-3.53,1.87-.28.51-.45,1.04-.65,1.56h0Z"/>
  </g>
</svg>
