<?xml version="1.0" encoding="UTF-8"?>
<svg id="Layer_2" data-name="Layer 2" xmlns="http://www.w3.org/2000/svg" viewBox="0 0 20.79 17.55">
  <defs>
    <style>
      .cls-1 {
        fill: #0f1022;
        stroke-width: 0px;
      }
    </style>
  </defs>
  <g id="Layer_7" data-name="Layer 7">
    <path class="cls-1" d="M20.77.97s-.11,0-.14,0c-.14,0-.28.03-.42.05-.27.04-.55.08-.82.14-.54.11-1.08.27-1.6.46-.4.15-.68.36-.96.69-.22.26-.43.57-.55.9-.13.35-.18.78-.27,1.15-.21.9-.44,1.79-.65,2.69-.09.39-.03.78-.09,1.19-.07.45-.2,1.01-.46,1.39-.34.48-.63.99-1.02,1.43-.36.4-.79.74-1.26,1-.09.05-.17.09-.26.13-.27.12-.45.34-.63.58-.1.14-.2.26-.35.34-.19.1-.36.24-.53.35,0,.03-.21.14-.24.16-.07.05-.14.08-.21.13-.16.13-.3.29-.46.44-.31.28-.62.55-.95.8-.12.09-.26.19-.4.15-.5.61-.96,1.22-1.46,1.83-.11.13-.22.27-.37.36-.15.09-.33.13-.49.07-.07.06-.1.13-.18.16-.09.03-.19,0-.24-.07-.08-.11,0-.26.08-.38.1-.11.18-.27.27-.39.09-.14.19-.27.28-.41.19-.27.37-.55.56-.82.37-.55.74-1.09,1.12-1.64.19-.27.37-.55.56-.82.17-.24.28-.54.41-.81.28-.58.55-1.17.81-1.76.11-.25.22-.5.32-.75-.04.02-.09.02-.12-.02-.03-.03-.04-.08-.05-.12-.03.03-.06.04-.09.06-.04.02-.08.03-.12.02-.04-.01-.06-.04-.09-.07-.14-.15-.28-.32-.34-.51-.03.07-.12.07-.19.04-.06-.03-.11-.09-.15-.16-.07-.11-.15-.22-.17-.35-.1,0-.2-.06-.27-.12-.07-.07-.11-.16-.11-.26-.09.04-.2.02-.29-.03-.09-.05-.15-.15-.16-.26-.19.01-.38-.05-.54-.16-.04-.03-.08-.06-.1-.1-.03-.04-.04-.09-.03-.14-.16,0-.31-.08-.44-.18-.13-.1-.22-.25-.25-.41-.16-.07-.31-.14-.44-.26-.13-.12-.22-.3-.2-.48-.16-.06-.3-.18-.44-.29-.06-.05-.12-.1-.16-.16-.04-.07-.05-.15-.03-.22-.15-.05-.31-.1-.44-.2-.13-.09-.24-.24-.26-.4-.17,0-.32.02-.48-.05s-.3-.21-.33-.39c-.02-.11,0-.23.05-.33-.23.02-.46-.03-.67-.15-.09-.05-.18-.12-.24-.21-.05-.09-.07-.22,0-.31-.17-.03-.33-.16-.47-.27-.07-.06-.14-.12-.17-.2-.03-.08-.02-.19.06-.24-.19-.05-.36-.11-.51-.22-.16-.12-.27-.32-.23-.51-.26-.07-.52-.21-.75-.38-.1-.07-.21-.18-.19-.31-.17-.02-.34-.09-.46-.21-.13-.12-.21-.28-.24-.46C-.03.45.03.2.24.08.46-.05.74,0,.99.06c2.08.48,4.1,1.26,5.97,2.31,1.79,1,3.68,1.78,5.26,3.1.14-.45.61-.75.79-1.19.17-.4.09-.87.16-1.3.1-.61.54-1.19,1.12-1.38.4-.13.82-.18,1.24-.14.31.03.61.07.92.05.3-.02.6-.07.9-.15.94-.26,1.91-.48,2.88-.55.12,0,.25-.01.37.02.05.01.14.04.17.08.03.04.02.07,0,.08h0Z"/>
  </g>
</svg>
