<?xml version="1.0" encoding="UTF-8"?>
<svg id="Layer_2" data-name="Layer 2" xmlns="http://www.w3.org/2000/svg" viewBox="0 0 17.36 18.85">
  <defs>
    <style>
      .cls-1 {
        fill: #0f1022;
        stroke-width: 0px;
      }
    </style>
  </defs>
  <g id="Layer_7" data-name="Layer 7">
    <path class="cls-1" d="M11.33,9.19c.15-.33.31-.65.47-.98.1-.22.21-.43.28-.66.11-.36.14-.74.1-1.12-.03-.33-.09-.69-.22-1,.26.04.52.08.78.11.21.03.34.07.53.16.18.09.36.18.54.27.36.18.73.36,1.09.55.72.36,1.45.73,2.17,1.09.09.05.22.09.28.01-1.21-1.31-2.63-2.43-4.04-3.55-.02-.02,0-.19,0-.22,0-.09-.01-.17-.02-.26-.02-.16-.06-.33-.1-.48-.09-.32-.23-.62-.42-.9-.08-.12-.16-.26-.26-.36-.11-.13-.28-.24-.41-.35-.28-.22-.57-.44-.88-.63-.19-.12-.39-.23-.59-.33C9.93.19,9.13-.03,8.33,0c-.58.02-1.09.37-1.4.82-.16.24-.26.53-.44.77-.22.31-.51.53-.63.89-.08.23-.13.48-.13.72,0,.14.05.32,0,.46-.05.13-.21.27-.3.38-.21.25-.43.49-.65.72-.45.47-.92.93-1.36,1.4-.31.33-.62.68-.89,1.04-.14.19-.27.38-.4.58-.11.18-.17.35-.26.54-.84,1.73-1.01,3.65-1.84,5.39-.02.05-.04.11,0,.14.05.04.12,0,.17-.05.18-.18.36-.36.54-.54,0,.32,0,.66.11.96.04.13.1.24.17.35-.04.14-.07.26-.08.4,0,.04,0,.09.02.13.04.06.12.08.2.09,0,0,0-.01,0-.01.25.86.21,1.77.16,2.66,0,.22-.02.44-.03.66,0,.12,0,.28.12.33.12.06.25-.02.35-.1.44-.4.56-1.01.85-1.52.37-.66,1.03-1.15,1.36-1.83.17,0,.35-.1.44-.23-.01.05.04.1.09.12.05.02.12.02.17.01.22-.03.43-.12.6-.26.09.08.16.15.25.23.02.02.05.04.06.07.01.03,0,.07-.02.09-.14.1-.28.18-.44.22-.07.02-.14.04-.2.08-.06.04-.1.12-.07.18-.13.05-.22.18-.21.31,0,.13.1.25.22.3-.04-.07-.08-.15-.07-.23,0-.08.07-.17.15-.18.03.07.14.08.21.05.08-.03.14-.08.2-.14.38-.31.98-.34,1.41-.1.31.17.54.47.64.79.04.13.06.27.09.41.02.1.07.2.17.08.12-.15,0-.38-.02-.54-.03-.24-.03-.46-.14-.69-.11-.24-.31-.38-.58-.47-.15-.05-.32-.05-.47-.11-.14-.07-.25-.19-.35-.31-.12-.15-.25-.29-.37-.44.22-.18.44-.36.66-.55.92-.78,1.89-1.49,2.82-2.25.26-.21.52-.42.74-.66.15-.17.29-.35.41-.55.31-.52.71-.88.97-1.43h0Z"/>
  </g>
</svg>
