<?xml version="1.0" encoding="UTF-8"?>
<svg id="Layer_2" data-name="Layer 2" xmlns="http://www.w3.org/2000/svg" viewBox="0 0 27.12 19.96">
  <defs>
    <style>
      .cls-1 {
        fill: #1b1919;
        stroke-width: 0px;
      }
    </style>
  </defs>
  <g id="Layer_7" data-name="Layer 7">
    <path class="cls-1" d="M20.82,19.02c-.16-.18-.36-.17-.61-.13-.28.05-.62-.02-.79-.34-.07-.15-.19-.2-.35-.2-.27,0-.53,0-.8.05-.42.07-.55,0-.76-.37-.14-.24-.42-.3-.7-.17-.07.04-.12.13-.21.13.15-.35.6-.49.95-.3.12.06.23.14.33.22.2.15.42.17.65.09.3-.1.38-.29.2-.54-.36-.5-.74-.99-1.12-1.48-.54-.67-1.18-1.24-1.78-1.86-.33-.34-.73-.38-1.15-.4-.16-.01-.32,0-.49,0-.45,0-.68.34-.53.77.38,1.11.83,2.19,1.3,3.27.22.51.57.91,1.03,1.21.16.11.35.15.55.14.43-.02.86.03,1.27.08.4.05.79.11,1.19.09.17,0,.32.1.44.27-.13.05-.21-.06-.3-.08-.21-.05-.39-.09-.49.18-.06.16-.21.15-.34.13-.2-.03-.4-.07-.59-.09-.23-.02-.41-.04-.65.14-.34.25-.81.15-1.21-.08-.05-.03-.1-.06-.14-.1-.37-.42-.83-.39-1.31-.27-.33.08-.67.14-1.02.13-.14,0-.24-.03-.26-.2-.04-.32-.25-.45-.55-.34-.12.04-.23.12-.36.18.11-.36.48-.5.89-.34.39.16.78.3,1.22.16.42-.13.47-.21.36-.63-.16-.64-.45-1.24-.68-1.85-.42-1.13-1.01-2.17-1.51-3.27-.03-.07-.09-.16-.16-.19-.37-.18-.65-.49-.97-.75-.18-.14-.39-.21-.61-.22-.38-.02-.76-.02-1.14-.06-.8-.09-1.49.26-2.21.5-.09.03-.16.11-.28.07.08-.24.32-.31.48-.46.07-.06.19-.1.17-.21-.02-.12-.16-.08-.25-.09-.57-.08-1.16-.08-1.72-.25-.14-.04-.28.02-.42.06-1.3.39-2.56.86-3.79,1.44-.34.16-.7.3-1.1.26-.13-.01-.23.09-.34.13-.05.02-.12.04-.16-.02-.04-.06.03-.1.07-.14.45-.33.92-.66,1.44-.88,1.17-.49,2.35-.95,3.52-1.45,1.17-.49,2.31-1.04,3.53-1.42.12-.04.23-.13.34-.21,1.19-.87,2.27-1.89,3.53-2.65.83-.5,1.5-1.17,2.23-1.78.25-.21.52-.39.76-.61.84-.74,1.7-1.47,2.52-2.24.94-.88,2.01-1.51,3.23-1.89.79-.25,1.61-.25,2.42,0,.55.16,1.07.39,1.57.68.32.18.69.09,1.04.05.24-.02.48-.01.71.04.08.02.19.04.21.13.02.1-.11.12-.18.15-.4.17-.79.33-1.19.48-.71.28-1.11.75-1.15,1.56-.04,1.01-.07,2.02-.11,3.03-.05,1.3-.44,2.51-1.09,3.64-.08.15-.22.26-.34.38-1.17,1.1-2.49,1.95-4.02,2.44-.47.15-.93.34-1.39.52-.33.13-.67.21-1.02.26-.35.05-.44.3-.21.57.82.97,1.64,1.96,2.53,2.88.28.29.58.6.9.81.45.3,1,.53,1.59.41.17-.03.34-.07.51-.09.42-.05.83.33.82.83-.18-.24-.37-.26-.57-.11-.03.02-.08.02-.11,0-.35-.19-.73,0-1.09-.11-.33-.09-.02.21-.16.27h0Z"/>
  </g>
</svg>