<?xml version="1.0" encoding="UTF-8"?>
<svg id="Layer_2" data-name="Layer 2" xmlns="http://www.w3.org/2000/svg" viewBox="0 0 27.66 22.87">
  <defs>
    <style>
      .cls-1 {
        fill: #000;
        stroke-width: 0px;
      }
    </style>
  </defs>
  <g id="Layer_7" data-name="Layer 7">
    <path class="cls-1" d="M14.05,19.25c.09.11.26.17.32.17s.38,0,.48-.07c.1-.06-.12-.04-.21-.13-.09-.09,0-.17.12-.19.11-.02.21-.17.23-.23.02-.06-.35.11-.36.11l.38-.37c-.23-.1-.48.37-.48.37-.01-.08.07-.27.07-.27-.12.02-.26.34-.26.34,0-.14.12-.36.12-.36-.12.07-.26.36-.26.36-.06-.11.09-.32.09-.32-.15.06-.16.32-.16.32-.04-.12.07-.36.07-.36-.09,0-.23.42-.28.44s.04.09.12.2h0ZM15.08,19.7s.29.06.46.07c.16.02,1.16,0,1.16,0l-.43-1.23c-.09-.05-.11.2-.16.26-.06.06-.03.08-.14.11-.11.03-.06.1.1.19.16.09-.04.21-.17.11-.14-.1-.16-.13-.07.02.09.15-.21.27-.14.23.07-.04,0-.19-.05-.17-.05.02-.16.18-.16.18,0,0,0-.07.09-.21.09-.14,0-.2-.07-.15-.06.05-.14.2-.16.3-.03.1.01.26-.07.28-.09.02,0,0-.08-.11-.08-.11-.14.06-.09.11h0ZM.19,19.17c.16-.18.35-.29.23-.31-.13-.02-.18.08-.25.01-.07-.07-.03-.11-.1-.13-.07-.02.08-.39.2-.49.11-.11.71-.65.93-.89.22-.23.3-.16.31-.31.01-.15.16-.33.28-.57.12-.24.36-.58.51-.76s.31-.34.33-.42c.02-.08-.2-.11-.39.03-.19.14-.62.35-.78.42-.16.07-.34.17-.29-.16.05-.33.23-.6.08-.55-.14.05-.47.33-.47.23,0-.1.26-.56.23-.66-.03-.1-.2-.2-.29-.11,0,0,0-.27.3-.25,0,0-.08-.08-.18-.03,0,0-.06-.17.22-.12-.01,0-.14-.06-.02-.2.12-.15.67-.57.9-.78.23-.22.8-.6,1.09-.76.3-.16.64-.28.81-.55.16-.27.4-.39.71-.67.31-.27.32-.26.43-.4.11-.14.12-.46.29-.79.17-.33.43-.82.81-1.25s1.02-1.18,1.77-1.66c.76-.48,1.23-.68,1.63-1,.4-.32.49-.54,1.42-1.17.93-.64,1.94-.99,1.94-.99,0,0-.24.01-.3-.37l.29-.05s-.24-.14-.25-.15c-.02,0-.07-.11,0-.17.08-.06-.15-.16.44-.2.59-.04.81.2.8.33,0,0,.92-.2,1.14-.26.22-.06.43-.29.91-.26.49.03.94.11,1.03.11s-.04.03.15-.01c.19-.04.33-.09.7-.01.36.08.21.19.71.08.51-.11,1.15-.26,1.48-.47.34-.22.89-.64,1.19-.54-.01,0-.21-.12-.33-.09,0,0,.29-.23.88.12,0,0-.11-.24-.35-.22,0,0,.33-.23.71.17l-.05-.27.31.34s.14-.43-.08-.6c0,0,.22,0,.36.32,0,0,.05-.38.22-.34,0,0-.14.32.04.48,0,0,.33-.05.55-.38.23-.33.97-1.09,1.44-1.17.48-.08.44.01.68-.15.24-.16.97-.12,1.25.1.29.22.63.5.73.83.11.33.11.28.1.38,0,0-.04-.06.03.48.08.54-.05,1.35-.18,1.84-.13.49.08,1.08,0,1.9-.08.82-.19,1.29-.82,1.52,0,0,.24-.26.26-.52.02-.26-.11-1.58-.55-2.11-.44-.54-1.12-1.34-1.12-1.34,0,0-.34.31-.63.73-.29.43-.76.89-.76.89,0,0,.17.28.42.28,0,0-.11.08-.52-.1l.6.44-.75-.45.37.66-.21-.18s-.06.12.19.39c.24.27.35.62.27.73,0,0,.02-.28-.28-.5-.3-.22-.55-.29-.55-.29,0,0,.19.24,0,.51-.18.27-.07.62-.07.64,0-.01-.26-.34-.22-.57.04-.23-.09-.29-.13-.06-.04.22.03.45.03.45,0,0-.13-.07-.14-.19-.01-.12-.13-.09-.13.09s.17.24.29.59c.12.35.22.98-.09,1.88,0,0,0-.44-.07-.85-.07-.41.02.15-.12.49-.14.34-.44,1.16-.92,1.69l.32-.67s-.55.69-1.03,1.43c-.41.63-.47.72-.48.73l.46-.87-.27.27.29-.61-1.05,1.42.9-1.47s-1.15,1.21-1.45,1.67c-.26.4-.29.45-.3.46l.45-.84s-.76.6-1.02.98c-.26.37-.45.11-.76.72-.31.61-.35,1.24-.25,1.83s.16.88-.11,1.3c-.13.21-.21.3-.25.34l.34-.18s-.22.25-.39.34c0,0,.2.22.34.04,0,0-.04.13-.3.16,0,0,.19.23.3.15,0,0-.07.12-.34.07,0,0,.02.23.16.28,0,0-.02.04-.24-.09,0,0,.02.27.13.35,0,0-.17-.04-.23-.13l.69,2.23s.34-.15.39.12c.05.28-.07.48-.07.48,0,0,.3.17.61.09.3-.08.41-.05.56-.22.15-.17.44-.18.44.22,0-.04-.02-.12-.13-.09-.14.04-.27.19-.3.27-.03.08-.05.18.55.26.6.08,1.06,0,1.24,0s.38-.11.63,0c.25.1.5.18.52.63,0,0-.25-.37-.41-.38-.16,0-.25.04-.25.04,0,0,.13.41-.08.41s-.69-.05-.71-.07c-.02-.02.07,0-.09-.04-.16-.05-.21.17-.3.17s-.59-.09-.62-.12c-.03-.04-.39.08-.49.06l-.1-.02s.38.22.24.75c0,0-.15-.45-.23-.47-.09-.02-.02.02-.03.18,0,.16-.18.25-.27.11-.09-.14-.09-.26-.27-.24-.17.02-.59.08-.73-.16-.14-.24-.13-.35-.27-.36-.13-.02-.36.12-.47-.04-.11-.17-.19-.46-.32-.32-.13.14-.1.24-.32.24s-.63,0-.6-.2c.03-.2.12-.12.03-.2-.09-.09-.66-.32-.71.1,0,0-.16-.71.46-.57.63.14.87.24.98.12.12-.12.13-.25.2-.31.08-.06.12-.42.06-.39s-.09.27-.21.19c-.12-.08,0-.11-.18-.18-.17-.07-.34-.15-.41.04-.08.19-.52.08-.59.08s0,.07-.09.22c0,0,.02-.18-.12-.19-.13,0-.33,0-.33,0,0,0-.06.3-.41.26-.34-.04-.34-.22-.34-.22,0,0-.61-.12-.82-.53,0,0-.4.12-.49-.14,0,0-.04-.15-.19.23-.15.38-.34.65-.59.47-.25-.18-.18-.44-.18-.44,0,0-.63-.29-.69.62,0,0-.22-.36.13-.75.35-.4.63-.18.72-.22.09-.04.52-.14.45-.36-.07-.22-.3-.3-.23-.43.07-.12.05-.2.16-.34.1-.14.2-.2.14-.27-.06-.07-.12-.23.03-.3.15-.07.14-.12.22-.21.08-.09.35-.06.35-.06l.1-1.86-.36.13.16-.26-.72.46.24-.43-.76.5.43-.63s-.98.45-1.41.85c-.43.4-.9.72-.9.72,0,0,.02-.49.19-.89-.09.17-.31.52-.57.52-.35,0-.79-.39-1.32-.24-.53.15-.47-.09-.77.1-.3.19-.6.32-.99.27-.39-.04-.54-.2-.7.02-.16.22-.91.73-1.36,1.21-.45.48-1.29,1.2-1.75,1.46-.45.26-.76.37-.81.3-.05-.07.35-.61.36-.7.01-.09-.4.2-.52.29-.12.08-.22.11-.3.1-.08,0-.14.18-.29.21-.14.03,0,.09-.18.12-.17.03-.74.02-.8.02s.22-.34.16-.39c-.06-.05-.18.03-.2.03s.16-.24.06-.22c-.1.02-.14.15-.18.17-.05.02.02-.3.17-.48H.19Z"/>
  </g>
</svg>
