<?xml version="1.0" encoding="UTF-8"?>
<svg id="Layer_2" data-name="Layer 2" xmlns="http://www.w3.org/2000/svg" viewBox="0 0 26.15 37.15">
  <defs>
    <style>
      .cls-1 {
        fill: #1b1919;
        stroke-width: 0px;
      }
    </style>
  </defs>
  <g id="Layer_7" data-name="Layer 7">
    <path class="cls-1" d="M24.14,33.37c.3.4.54.73.79,1.06.08.1.17.21.28.27.27.17.65.38.87.16.19-.19-.18-.44-.32-.64-.54-.78-1.16-1.51-1.6-2.38.51.45,1.02.89,1.77.7,0-.23-.17-.23-.27-.29-1.19-.71-2.17-1.62-2.89-2.84-.32-.54-.85-.95-1.3-1.41-.99-1.01-2.19-1.78-3.28-2.67-.76-.62-1.52-1.24-2.26-1.88-.16-.14-.55-.37.08-.46.29-.04.51-1.12.33-1.42-.27-.44-.65-.72-1.16-.83-1.13-.24-1.76-.99-2.08-2.07-.68-2.34-1.44-4.65-1.98-7.03-.13-.58-.38-1.11-.65-1.63-1.23-2.32-1.96-4.82-2.57-7.36-.05-.21-.02-.57-.26-.56-.29,0-.33.37-.37.63-.1.6.14,1.15.29,1.72.06.25.15.49.11.79-.35-.62-.69-1.23-1.05-1.85-.58-1.01-1.16-2.03-1.76-3.04-.09-.15-.16-.4-.4-.31-.2.08-.21.31-.19.5.08.67.4,1.26.73,1.83.31.55.66,1.08.9,1.69-.64-.78-1.27-1.56-1.91-2.33-.34-.41-.68-.8-1.03-1.2-.11-.13-.25-.27-.44-.17-.22.11-.16.34-.1.51.21.68.67,1.22,1.07,1.79.35.49.73.95,1.02,1.51-.5-.45-1-.9-1.51-1.34-.43-.36-.87-.72-1.33-1.05-.18-.13-.43-.28-.61-.07-.19.21,0,.44.14.6.5.63,1,1.27,1.6,1.83.22.2.44.4.66.59-.03.04-.07.08-.1.11-.62-.37-1.23-.76-1.86-1.11-.26-.14-.58-.53-.83-.23-.22.27.16.58.36.81.54.6,1.08,1.2,1.71,1.72.19.15.57.33.02.55-.19.08-.24.29-.2.49.07.34-.05.69-.01,1,.08.71-.16,1.43.12,2.13.07.18.04.37.02.56-.03.33.02.67.23.91.49.56.58,1.18.35,1.87-.03.08-.05.21,0,.28.51.86.39,1.9.8,2.77.13.27.39.48.49.75.53,1.39,1.36,2.6,2.12,3.85.07.11.12.24.16.36.23.71.15.84-.58.83-1.67-.03-3.34.08-5.01-.09-.32-.03-.6,0-.9.21-.45.31-.4.56-.23,1.03.18.49-.05,1.12.38,1.58-.34.39-.18.72.12,1.04.03.03.03.11.03.16.02,1,.24,1.2,1.23,1.07.22-.03.43-.11.64-.19.14-.05.29-.16.4,0,.13.19-.02.32-.15.42-.22.18-.38.41-.55.64-.35.5-.11,1.06.49,1.03.41-.02.61.1.77.45.09.19.31.36.51.29.43-.15.6.13.81.4.13.16.28.36.51.31.34-.08.52.12.74.3.51.4,1.39.16,1.63-.43.56-1.36,1.25-2.67,1.72-4.07.08-.24.14-.44.43-.12.33.36.8.47,1.31.43-.31.12-.67.23-.63.62.05.52.35.96.78,1.23.43.26.89.46,1.16.93.09.15.17.28.19.45.01.13.03.31.12.37.53.38,1.03.84,1.63,1.06.51.19.94.37,1.2.87.09.17.23.33.41.37.62.14,1.09.59,1.74.72.48.09,1,.36,1.45.65.41.26.76.32,1.08-.24.16.62.31,1.17.46,1.73.05.18.08.37.15.55.14.36.26.89.72.8.38-.07.21-.59.23-.9.04-.48.01-.97.1-1.47.2.55.4,1.11.6,1.66.03.09.05.18.09.27.15.33.35.75.75.63.37-.11.21-.54.17-.85-.08-.52-.16-1.04-.17-1.59.13.24.25.49.39.73.11.2.21.4.35.58.2.28.49.63.81.47.37-.18.08-.57-.02-.85-.24-.7-.51-1.38-.76-2.07-.01-.03,0-.07,0-.19h0Z"/>
  </g>
</svg>