<?xml version="1.0" encoding="UTF-8"?>
<svg id="Layer_2" data-name="Layer 2" xmlns="http://www.w3.org/2000/svg" viewBox="0 0 31.64 44.24">
  <defs>
    <style>
      .cls-1 {
        fill: #0f1022;
        stroke-width: 0px;
      }
    </style>
  </defs>
  <g id="Layer_7" data-name="Layer 7">
    <path class="cls-1" d="M22.72,14.18c-.82,2.45-2.32,4.69-4.33,6.45.4.16.72.48.86.86.02.04.03.09.01.14-.02.04-.08.08-.12.05-.02-.01-.03-.03-.04-.05-.05-.1-.1-.2-.15-.3-.1.04-.22.03-.31-.04-.03-.03-.06-.06-.1-.09-.04-.02-.1-.02-.12.02-.03.04.01.09.05.12.04.03.09.05.1.1.5.31.83.83.88,1.38.02.18,0,.38-.11.53-.11.15-.34.25-.52.17.16-.11.25-.27.31-.44-.03,0-.07-.01-.08-.04-.02-.03-.02-.06-.02-.09-.01-.11-.05-.15-.06-.26-.01-.26-.15-.5-.36-.67.16.32.3.78,0,1.01-.07.06-.14.11-.21.17-.08-.16-.04-.35-.04-.53,0-.31-.09-.63-.3-.88-.17-.2-.57-.49-.87-.4-.17.05-.37.21-.53.3-.18.1-.36.19-.54.29-1.11.59-2.31,1.16-3.42,1.75.8.14,1.57.13,2.37.05.54-.06,1.08-.07,1.61.04.17.03.35.07.4.22.2.04.38.16.49.32.1.16.13.37.07.55-.01.05-.04.09-.07.12-.04.03-.1.05-.14.03-.07-.03-.08-.11-.09-.18-.05-.25-.28-.44-.53-.51-.26-.08-.54-.05-.8.01.32.12.6.29.81.54.21.25.44.44.55.75.03.08.06.17.04.26-.01.1-.1.12-.13.2-.03.07,0,.13.02.21.02.18-.02.36-.13.5-.19.25-.57.35-.88.25.04-.05.06-.08.12-.09.24-.03.46-.2.53-.42-.18-.55-.6-1.04-1.14-1.33-.54-.29-1.22-.48-1.83-.35.01.02.03.04.04.06-.25.2-.5.4-.69.65-.18.25-.31.54-.24.83-.1-.1-.15-.22-.2-.35-.06-.16-.11-.32-.1-.48.02-.16.1-.31.21-.43.11-.12.22-.25.36-.35-.37-.03-.73-.07-1.1-.11-.17.47-.52.88-.98,1.14-.16.09-.34.17-.46.3-.17.17-.23.42-.36.62-.18.28-.51.47-.86.5-.09,0-.18,0-.25.06-.07.05-.09.15-.12.23-.17.5-.72.83-1.28.87-.56.04-1.12-.17-1.57-.49-.65,2.15-1.35,4.31-1.8,6.5-.44,2.11-.88,4.21-1.16,6.34-.15,1.15-.29,2.37-1.09,3.26-.11.12-.27.25-.43.19-.2-.07-.23-.34-.18-.53,0,0,.01-.02,0,0-.19.27-.53.39-.86.5-.08.03-.18.06-.26.02-.1-.05-.11-.18-.1-.29,0-.13,0-.32.01-.45-.07.17-.58.58-.5.18.44-2.24.87-4.45,1.42-6.68.24-.99.47-1.97.69-2.96.25-1.11.48-2.23.69-3.35.05-.28.11-.56.16-.84.05-.27.03-.45-.01-.72-.08-.54-.13-1.09.01-1.62.08-.27.2-.53.28-.8.08-.29.11-.59.18-.89.13-.56.51-1.06.73-1.6.25-.6.41-1.24.65-1.84.56-1.44,1.7-2.59,2.43-3.96.75-1.4,1.52-2.84,2.74-3.91.36-.31.75-.59,1.16-.84.44-.26.96-.45,1.36-.76.44-.34.89-.67,1.35-.98.46-.31.93-.62,1.41-.9.24-.14.48-.28.73-.42.07-.04.67-.42.71-.38-.02-.01-.04-.03-.06-.03-.02,0-.03-.01-.05-.02-.84-.36-1.53-1-1.94-1.76-.19-.36-.38-.8-.39-1.2,0-.54.09-1.08.28-1.59.33-.88.94-1.64,1.67-2.28-.31-.06-.62-.19-.82-.42-.2-.23-.25-.58-.08-.82.15-.21.42-.29.68-.37.64-.19,1.26-.4,1.88-.62,1.79-.65,3.74-1.24,5.68-1.01.15.02.32.05.4.18.07.11.03.26-.03.38-.16.32-.22.68.25.73.47.06.93.11,1.4.22.92.21,1.81.55,2.62,1.01.82.46,1.57,1.04,2.21,1.72.64.68,1.23,1.46,1.23,2.4-.18,0-.29-.02-.44-.11-1.25-.77-2.71-1.27-4.21-1.42-1.13-.12-2.29-.04-3.39.22-.65.15-1.25.42-1.82.74-.25.14-.42.22-.59.47-.16.24-.25.52-.26.8-.02.45.17.9.51,1.22.78.72,1.43,1.57,1.63,2.57.21,1.07-.1,2.16-.41,3.21"/>
  </g>
</svg>
